<svg width="62" height="34" viewBox="0 0 62 34" fill="none" xmlns="http://www.w3.org/2000/svg">
<g clip-path="url(#clip0_101_4)">
<path d="M2.86328 10.3281C2.86328 7.96094 2.89844 6.14453 2.96875 4.87891H2.95703L1.16406 4.63281C1.0625 4.34375 0.984375 4.02734 0.929688 3.68359C0.875 3.33203 0.847656 2.99219 0.847656 2.66406C0.847656 2.41406 0.867188 2.14062 0.90625 1.84375C1.85938 1.52344 3.10547 1.27734 4.64453 1.10547C6.18359 0.925781 7.65234 0.835938 9.05078 0.835938C10.2461 0.835938 11.2734 0.929688 12.1328 1.11719C12.9922 1.29687 13.7109 1.71094 14.2891 2.35938C14.875 3 15.168 3.95703 15.168 5.23047C15.168 5.73047 15.0312 6.29688 14.7578 6.92969C14.4844 7.55469 14.125 8.14453 13.6797 8.69922C13.2422 9.24609 12.7852 9.66797 12.3086 9.96484C12.9023 10.0664 13.4531 10.2734 13.9609 10.5859C14.4766 10.8906 14.8945 11.3086 15.2148 11.8398C15.5352 12.3633 15.6953 12.9844 15.6953 13.7031C15.6953 14.6641 15.5117 15.4922 15.1445 16.1875C14.7773 16.8828 14.2539 17.457 13.5742 17.9102C12.2461 18.793 10.3711 19.2344 7.94922 19.2344C6.99609 19.2344 6.14844 19.2148 5.40625 19.1758C4.67188 19.1445 3.99219 19.082 3.36719 18.9883C3.03125 17.1758 2.86328 14.2891 2.86328 10.3281ZM9.53125 9.58984C9.73438 9.01953 9.90625 8.29688 10.0469 7.42188C10.1953 6.53906 10.2852 5.82031 10.3164 5.26562C10.2773 5.19531 10.0781 5.13672 9.71875 5.08984C9.35938 5.03516 8.89453 5.00781 8.32422 5.00781C8.14453 5.00781 7.84375 5.01953 7.42188 5.04297C7.35938 6.80078 7.26562 8.37891 7.14062 9.77734L8.32422 9.68359L9.53125 9.58984ZM8.94531 16.1641C9.60156 16.1641 10.0703 16.1367 10.3516 16.082C10.5469 15.9648 10.7188 15.7539 10.8672 15.4492C11.0234 15.1445 11.1406 14.8125 11.2188 14.4531C11.2969 14.0859 11.3359 13.7578 11.3359 13.4688C11.1953 13.0625 10.4961 12.8594 9.23828 12.8594C8.70703 12.8594 8.09766 12.8945 7.41016 12.9648C7.22266 12.9883 7.08203 13 6.98828 13L6.95312 14.7109C6.94531 14.8828 6.9375 15.082 6.92969 15.3086C6.92188 15.5352 6.91797 15.7891 6.91797 16.0703C7.43359 16.1328 7.99609 16.1641 8.60547 16.1641H8.94531ZM17.0664 15.2383C17.543 15.3945 17.9766 15.5195 18.3672 15.6133C19.125 12.5664 19.9883 8.96875 20.957 4.82031L18.1328 4.51562C17.9531 4.02344 17.8633 3.46484 17.8633 2.83984C17.8633 2.36328 17.918 1.89844 18.0273 1.44531C19.1602 1.22656 20.4648 1.07031 21.9414 0.976562C23.4258 0.875 24.6992 0.824219 25.7617 0.824219C26.5273 0.824219 27.1016 0.828125 27.4844 0.835938L28.2227 1.25781C29.5352 4.85938 30.8672 9.73047 32.2188 15.8711C32.2344 15.9336 32.2617 16.0586 32.3008 16.2461C32.3477 16.4336 32.3828 16.6133 32.4062 16.7852C32.4297 16.9492 32.4414 17.1055 32.4414 17.2539C32.4414 17.9102 32.207 18.4414 31.7383 18.8477C31.082 19.1055 30.2891 19.2344 29.3594 19.2344C28.9219 19.2344 28.4805 19.1875 28.0352 19.0938C27.5898 19 27.2891 18.8555 27.1328 18.6602L27.2734 15.6367L26.9805 14.0664C26.4727 14.0977 25.875 14.1133 25.1875 14.1133C24.4531 14.1133 23.7656 14.0898 23.125 14.043L22.9844 14.6758C22.6797 16.0352 22.4297 17 22.2344 17.5703C22.0469 18.1406 21.7656 18.5625 21.3906 18.8359C21.0234 19.1094 20.4727 19.2461 19.7383 19.2461C19.2617 19.2461 18.7812 19.1836 18.2969 19.0586C17.8125 18.9414 17.375 18.7812 16.9844 18.5781C16.5938 18.375 16.3008 18.1562 16.1055 17.9219C16.1055 17.3594 16.1914 16.8242 16.3633 16.3164C16.5352 15.8086 16.7695 15.4492 17.0664 15.2383ZM25.2812 4.92578H24.7422L23.8984 10.7031H26.5234L25.2812 4.92578ZM33.2969 16.0352C33.2969 15.3242 33.4414 14.6406 33.7305 13.9844C33.8633 13.9844 34.0703 14.0117 34.3516 14.0664C34.6328 14.1133 34.9297 14.1758 35.2422 14.2539C35.2031 12.5742 35.1836 10.9336 35.1836 9.33203C35.1836 7.60547 35.2148 6.13281 35.2773 4.91406H35.2656L35.2773 4.77344L33.3672 4.52734C33.25 4.05078 33.1719 3.65625 33.1328 3.34375C33.0938 3.02344 33.0781 2.65625 33.0859 2.24219C33.3359 1.96094 33.7031 1.71484 34.1875 1.50391C34.6797 1.28516 35.207 1.12109 35.7695 1.01172C36.3398 0.894531 36.8594 0.835938 37.3281 0.835938C38.2266 0.835938 38.9258 1.01562 39.4258 1.375C39.9336 1.72656 40.2227 2.28906 40.293 3.0625C40.3164 3.36719 40.3281 3.69922 40.3281 4.05859C40.3281 5.24609 40.2227 6.65234 40.0117 8.27734C39.8008 9.90234 39.5195 11.8008 39.168 13.9727L39.0742 14.582L42.0625 14.7461L43.2812 10.8555C43.6484 10.8398 44.0664 10.8672 44.5352 10.9375C45.0117 11.0078 45.4219 11.1055 45.7656 11.2305C45.9062 11.5977 46.0352 12.1836 46.1523 12.9883C46.2773 13.7852 46.3398 14.5664 46.3398 15.332C46.3398 16.6055 46.1523 17.5 45.7773 18.0156C45.5898 18.2656 45.3281 18.4844 44.9922 18.6719C44.6641 18.8516 44.3164 18.9883 43.9492 19.082C43.5898 19.1836 43.2656 19.2344 42.9766 19.2344C42.5156 19.2344 41.9766 19.1367 41.3594 18.9414C40.7422 18.7383 40.1367 18.4844 39.543 18.1797C38.9492 17.8672 38.4609 17.5547 38.0781 17.2422C37.7266 17.8516 37.3203 18.3242 36.8594 18.6602C36.3984 18.9961 35.8242 19.1875 35.1367 19.2344C34.8008 19.1797 34.4922 19.0039 34.2109 18.707C33.9297 18.4102 33.707 18.0273 33.543 17.5586C33.3789 17.0898 33.2969 16.582 33.2969 16.0352ZM46.7266 16.3984C46.7266 16 46.793 15.5898 46.9258 15.168C47.5977 14.9805 48.2266 14.8906 48.8125 14.8984C48.6641 13.375 48.5391 11.7109 48.4375 9.90625C48.3359 8.09375 48.2656 6.42188 48.2266 4.89062H48.2148L46.5391 4.64453C46.4375 4.35547 46.3594 4.03516 46.3047 3.68359C46.25 3.33203 46.2227 2.99219 46.2227 2.66406C46.2227 2.41406 46.2422 2.14062 46.2812 1.84375C47.1172 1.47656 48.4297 1.21875 50.2188 1.07031C52.0078 0.914063 53.7852 0.835938 55.5508 0.835938C56.7383 0.835938 57.7461 0.929688 58.5742 1.11719C59.4023 1.30469 60.0938 1.73047 60.6484 2.39453C61.2109 3.05078 61.4922 4.03516 61.4922 5.34766C61.4922 7.77734 60.9062 10.9648 59.7344 14.9102C59.5391 15.5586 59.3203 16.1406 59.0781 16.6562C58.8359 17.1719 58.5273 17.6172 58.1523 17.9922C57.832 18.3516 57.5 18.625 57.1562 18.8125C56.8203 18.9922 56.4141 19.082 55.9375 19.082C55.6953 19.082 55.3672 19.043 54.9531 18.9648C54.4375 18.8633 53.9805 18.7344 53.582 18.5781C53.1836 18.4141 52.8516 18.25 52.5859 18.0859C52.3281 17.9219 52.0195 17.7148 51.6602 17.4648C51.5039 17.6914 51.2422 17.9414 50.875 18.2148C50.5156 18.4883 50.1172 18.7227 49.6797 18.918C49.2422 19.1133 48.8359 19.2188 48.4609 19.2344C47.9219 19.0312 47.4961 18.6719 47.1836 18.1562C46.8789 17.6328 46.7266 17.0469 46.7266 16.3984ZM55.75 14.8047C55.9688 13.7266 56.1406 12.4766 56.2656 11.0547C56.3906 9.625 56.4961 8.08203 56.582 6.42578L56.6289 5.59375C56.582 5.50781 56.3906 5.42188 56.0547 5.33594C55.7266 5.25 55.293 5.20703 54.7539 5.20703L53.8398 5.19531C53.4023 5.19531 53.0508 5.21484 52.7852 5.25391C52.7852 5.58203 52.7891 5.85938 52.7969 6.08594C52.8203 7.44531 52.832 8.66016 52.832 9.73047C52.832 10.9727 52.8203 12.7383 52.7969 15.0273C53.8203 15.0273 54.8047 14.9531 55.75 14.8047Z" fill="black"/>
<path d="M10.1582 30.1328C10.1582 29.5078 10.3242 28.998 10.6562 28.6035C10.7656 28.5449 10.8945 28.5 11.043 28.4688C11.1914 28.4336 11.3477 28.416 11.5117 28.416C11.8008 28.416 12.0605 28.4668 12.291 28.5684C12.291 28.6816 12.293 28.7656 12.2969 28.8203C12.3008 29.2148 12.3105 29.5527 12.3262 29.834C12.3418 30.1113 12.377 30.4199 12.4316 30.7598C12.4902 31.0996 12.5781 31.4531 12.6953 31.8203C12.7852 31.8438 12.9062 31.8555 13.0586 31.8555L13.2695 31.8496C13.3047 31.8457 13.3555 31.8438 13.4219 31.8438L13.5098 31.8496C13.5215 31.541 13.5273 31.1465 13.5273 30.666C13.5273 29.7363 13.5078 28.6211 13.4688 27.3203C13.4414 26.4102 13.4277 25.6621 13.4277 25.0762C13.4277 24.5488 13.4395 24.1426 13.4629 23.8574C13.0449 23.873 12.7031 23.8926 12.4375 23.916L12.4199 25.5625C12.1855 25.6211 11.9785 25.6602 11.7988 25.6797C11.623 25.6992 11.4297 25.707 11.2188 25.7031C11.1211 25.625 11.0156 25.4766 10.9023 25.2578C10.793 25.0352 10.7012 24.7832 10.627 24.502C10.5527 24.2168 10.5156 23.9473 10.5156 23.6934C10.5156 23.3418 10.5781 23.0488 10.7031 22.8145C10.832 22.5801 11.0234 22.4102 11.2773 22.3047C11.4102 22.2344 11.5625 22.1816 11.7344 22.1465C11.9102 22.1074 12.1289 22.0723 12.3906 22.041C12.6719 22.0059 12.9844 21.9883 13.3281 21.9883C13.6914 21.9883 14.0684 22.0059 14.459 22.041C14.8535 22.0723 15.2207 22.1172 15.5605 22.1758L15.8711 22.5391C15.8281 23.9492 15.793 25.0039 15.7656 25.7031C15.75 25.9922 15.7324 26.4922 15.7129 27.2031C15.6738 28.3047 15.6387 29.2188 15.6074 29.9453C15.5762 30.668 15.543 31.1895 15.5078 31.5098C15.4727 31.8262 15.4238 32.0957 15.3613 32.3184C15.3027 32.5449 15.2109 32.7422 15.0859 32.9102C14.9258 33.1211 14.709 33.2773 14.4355 33.3789C14.166 33.4805 13.8613 33.5312 13.5215 33.5312C12.9473 33.5312 12.4609 33.4609 12.0625 33.3203C11.6641 33.1797 11.3223 32.9434 11.0371 32.6113C10.7559 32.2832 10.5215 31.834 10.334 31.2637C10.2168 30.8965 10.1582 30.5195 10.1582 30.1328ZM16.9434 27.5957C16.9434 26.9199 17.0566 26.3164 17.2832 25.7852C17.5098 25.2539 17.8594 24.834 18.332 24.5254C18.8086 24.2129 19.4023 24.0566 20.1133 24.0566C20.4844 24.0566 20.8555 24.1016 21.2266 24.1914C21.5977 24.2773 21.9121 24.4219 22.1699 24.625C22.4082 24.8164 22.5801 25.0703 22.6855 25.3867C22.7949 25.6992 22.8496 26.0469 22.8496 26.4297C22.8496 26.6836 22.8281 26.9434 22.7852 27.209C22.7383 27.2871 22.6465 27.3906 22.5098 27.5195C22.373 27.6445 22.2129 27.7676 22.0293 27.8887C21.8457 28.0098 21.668 28.1035 21.4961 28.1699C21.332 28.1816 21.1621 28.1875 20.9863 28.1875C20.6777 28.1875 20.3652 28.1738 20.0488 28.1465C19.7324 28.1191 19.4551 28.0879 19.2168 28.0527C19.248 28.3848 19.3496 28.6738 19.5215 28.9199C19.6934 29.166 19.9668 29.2891 20.3418 29.2891C20.377 29.2891 20.4336 29.2852 20.5117 29.2773C20.75 29.2539 21.0273 29.1914 21.3438 29.0898C21.6641 28.9844 21.9824 28.8633 22.2988 28.7266C22.4473 28.875 22.5566 29.0234 22.627 29.1719C22.6973 29.3203 22.7461 29.5332 22.7734 29.8105C22.6523 29.9512 22.4551 30.123 22.1816 30.3262C21.9121 30.5293 21.582 30.7129 21.1914 30.877C20.8008 31.0371 20.3926 31.1172 19.9668 31.1172C19.3262 31.1172 18.7773 30.9629 18.3203 30.6543C17.8672 30.3418 17.5234 29.9199 17.2891 29.3887C17.0586 28.8535 16.9434 28.2559 16.9434 27.5957ZM20.7168 26.248C20.6621 26.1895 20.5703 26.1445 20.4414 26.1133C20.3125 26.0781 20.1777 26.0605 20.0371 26.0605C19.9238 26.0605 19.8086 26.0703 19.6914 26.0898C19.5781 26.1094 19.5098 26.1309 19.4863 26.1543C19.3535 26.416 19.2695 26.7129 19.2344 27.0449L20.7988 26.8926L20.7168 26.248ZM24.2207 29.4297C24.2207 29.2617 24.2246 28.8496 24.2324 28.1934C24.2441 26.9043 24.25 26.1992 24.25 26.0781L23.7109 25.9902C23.6367 25.7676 23.584 25.5586 23.5527 25.3633C23.5215 25.168 23.5059 24.9707 23.5059 24.7715C23.5059 24.6895 23.5078 24.627 23.5117 24.584C23.5781 24.5254 23.6816 24.4551 23.8223 24.373C23.9629 24.291 24.1289 24.2188 24.3203 24.1562C24.5117 24.0898 24.707 24.0566 24.9062 24.0566C25.3711 24.0566 25.707 24.1602 25.9141 24.3672C26.125 24.5742 26.2305 24.877 26.2305 25.2754C26.2305 25.5176 26.1992 25.8281 26.1367 26.207C26.0781 26.582 26.0176 26.8496 25.9551 27.0098L26.166 27.0449L26.5176 25.7207C26.6738 25.123 26.8691 24.6973 27.1035 24.4434C27.3379 24.1855 27.6016 24.0566 27.8945 24.0566C28.0859 24.0566 28.2754 24.0859 28.4629 24.1445C28.6543 24.2031 28.8008 24.2754 28.9023 24.3613C29.0117 24.6035 29.0664 24.9258 29.0664 25.3281C29.0664 25.6094 29.0391 25.8887 28.9844 26.166C28.9297 26.4395 28.8594 26.6602 28.7734 26.8281L27.543 26.6641C27.293 26.9297 27.0273 27.2988 26.7461 27.7715C26.4648 28.2402 26.2402 28.6719 26.0723 29.0664L26.0664 29.3711L27.2031 29.1016C27.3945 29.3945 27.5059 29.7422 27.5371 30.1445C27.5371 30.168 27.4492 30.2637 27.2734 30.4316C27.0977 30.5996 26.8652 30.7559 26.5762 30.9004C26.291 31.041 25.9629 31.1113 25.5918 31.1113C25.209 31.1113 24.8887 31.0098 24.6309 30.8066C24.377 30.5996 24.2422 30.252 24.2266 29.7637C24.2227 29.7051 24.2207 29.5938 24.2207 29.4297ZM29.4941 27.5957C29.4941 26.9199 29.6074 26.3164 29.834 25.7852C30.0605 25.2539 30.4102 24.834 30.8828 24.5254C31.3594 24.2129 31.9531 24.0566 32.6641 24.0566C33.0352 24.0566 33.4062 24.1016 33.7773 24.1914C34.1484 24.2773 34.4629 24.4219 34.7207 24.625C34.959 24.8164 35.1309 25.0703 35.2363 25.3867C35.3457 25.6992 35.4004 26.0469 35.4004 26.4297C35.4004 26.6836 35.3789 26.9434 35.3359 27.209C35.2891 27.2871 35.1973 27.3906 35.0605 27.5195C34.9238 27.6445 34.7637 27.7676 34.5801 27.8887C34.3965 28.0098 34.2188 28.1035 34.0469 28.1699C33.8828 28.1816 33.7129 28.1875 33.5371 28.1875C33.2285 28.1875 32.916 28.1738 32.5996 28.1465C32.2832 28.1191 32.0059 28.0879 31.7676 28.0527C31.7988 28.3848 31.9004 28.6738 32.0723 28.9199C32.2441 29.166 32.5176 29.2891 32.8926 29.2891C32.9277 29.2891 32.9844 29.2852 33.0625 29.2773C33.3008 29.2539 33.5781 29.1914 33.8945 29.0898C34.2148 28.9844 34.5332 28.8633 34.8496 28.7266C34.998 28.875 35.1074 29.0234 35.1777 29.1719C35.248 29.3203 35.2969 29.5332 35.3242 29.8105C35.2031 29.9512 35.0059 30.123 34.7324 30.3262C34.4629 30.5293 34.1328 30.7129 33.7422 30.877C33.3516 31.0371 32.9434 31.1172 32.5176 31.1172C31.877 31.1172 31.3281 30.9629 30.8711 30.6543C30.418 30.3418 30.0742 29.9199 29.8398 29.3887C29.6094 28.8535 29.4941 28.2559 29.4941 27.5957ZM33.2676 26.248C33.2129 26.1895 33.1211 26.1445 32.9922 26.1133C32.8633 26.0781 32.7285 26.0605 32.5879 26.0605C32.4746 26.0605 32.3594 26.0703 32.2422 26.0898C32.1289 26.1094 32.0605 26.1309 32.0371 26.1543C31.9043 26.416 31.8203 26.7129 31.7852 27.0449L33.3496 26.8926L33.2676 26.248ZM36.0215 23.3359C35.9629 23.0977 35.9238 22.9004 35.9043 22.7441C35.8848 22.584 35.877 22.4004 35.8809 22.1934C35.9629 22.0879 36.0898 21.9824 36.2617 21.877C36.4375 21.7676 36.6406 21.6758 36.8711 21.6016C37.1055 21.5273 37.3477 21.4902 37.5977 21.4902C38.0859 21.4902 38.4609 21.6133 38.7227 21.8594C38.9844 22.1055 39.1152 22.4688 39.1152 22.9492C39.1152 23.293 39.0859 23.8457 39.0273 24.6074C38.9688 25.3691 38.8848 26.1797 38.7754 27.0391C38.666 27.8945 38.541 28.6426 38.4004 29.2832L38.4121 29.2949L39.2793 28.9316C39.584 29.1934 39.7617 29.541 39.8125 29.9746C39.8125 30.002 39.7246 30.1152 39.5488 30.3145C39.373 30.5098 39.1406 30.6934 38.8516 30.8652C38.5664 31.0332 38.2383 31.1172 37.8672 31.1172C37.4805 31.1172 37.166 31.0098 36.9238 30.7949C36.6855 30.5801 36.5723 30.2129 36.584 29.6934L36.5957 28.6387C36.5996 27.6387 36.6094 26.7383 36.625 25.9375C36.6445 25.1367 36.6836 24.3105 36.7422 23.459L36.0215 23.3359ZM40.8848 29.4297C40.8848 29.2617 40.8887 28.8496 40.8965 28.1934C40.9082 26.9043 40.9141 26.1992 40.9141 26.0781L40.375 25.9902C40.3008 25.7676 40.248 25.5586 40.2168 25.3633C40.1855 25.168 40.1699 24.9707 40.1699 24.7715C40.1699 24.6895 40.1719 24.627 40.1758 24.584C40.2422 24.5254 40.3457 24.4551 40.4863 24.373C40.627 24.291 40.793 24.2188 40.9844 24.1562C41.1758 24.0898 41.3711 24.0566 41.5703 24.0566C42.0352 24.0566 42.3711 24.1602 42.5781 24.3672C42.7891 24.5742 42.8945 24.877 42.8945 25.2754C42.8945 25.5176 42.8633 25.8281 42.8008 26.207C42.7422 26.582 42.6816 26.8496 42.6191 27.0098L42.8301 27.0449L43.1816 25.7207C43.3379 25.123 43.5332 24.6973 43.7676 24.4434C44.002 24.1855 44.2656 24.0566 44.5586 24.0566C44.75 24.0566 44.9395 24.0859 45.127 24.1445C45.3184 24.2031 45.4648 24.2754 45.5664 24.3613C45.6758 24.6035 45.7305 24.9258 45.7305 25.3281C45.7305 25.6094 45.7031 25.8887 45.6484 26.166C45.5938 26.4395 45.5234 26.6602 45.4375 26.8281L44.207 26.6641C43.957 26.9297 43.6914 27.2988 43.4102 27.7715C43.1289 28.2402 42.9043 28.6719 42.7363 29.0664L42.7305 29.3711L43.8672 29.1016C44.0586 29.3945 44.1699 29.7422 44.2012 30.1445C44.2012 30.168 44.1133 30.2637 43.9375 30.4316C43.7617 30.5996 43.5293 30.7559 43.2402 30.9004C42.9551 31.041 42.627 31.1113 42.2559 31.1113C41.873 31.1113 41.5527 31.0098 41.2949 30.8066C41.041 30.5996 40.9062 30.252 40.8906 29.7637C40.8867 29.7051 40.8848 29.5938 40.8848 29.4297ZM48.2383 30.2676C48.1641 29.9785 48.0254 29.5605 47.8223 29.0137C47.6191 28.4629 47.4062 27.9336 47.1836 27.4258C46.9609 26.918 46.7852 26.5684 46.6562 26.377L46.1172 26.2832C46.0625 26.1309 46.0195 25.9629 45.9883 25.7793C45.9609 25.5918 45.9375 25.375 45.918 25.1289C45.9844 24.9453 46.0859 24.7715 46.2227 24.6074C46.3594 24.4434 46.5234 24.3105 46.7148 24.209C46.9102 24.1074 47.1211 24.0566 47.3477 24.0566C47.7188 24.0566 48.0254 24.1621 48.2676 24.373C48.5137 24.5801 48.7031 24.8418 48.8359 25.1582C48.9727 25.4707 49.0918 25.8398 49.1934 26.2656C49.4004 27.0898 49.5332 28.1113 49.5918 29.3301L49.7207 29.3066C49.873 28.9668 50.002 28.4805 50.1074 27.8477C50.2168 27.2148 50.2754 26.6074 50.2832 26.0254L49.5508 25.9141C49.4648 25.5859 49.4219 25.2012 49.4219 24.7598C49.5078 24.6543 49.6309 24.5488 49.791 24.4434C49.9551 24.334 50.1484 24.2422 50.3711 24.168C50.5938 24.0938 50.8301 24.0566 51.0801 24.0566C52.0879 24.0566 52.5918 24.5625 52.5918 25.5742C52.5918 26.3711 52.4473 27.1445 52.1582 27.8945C51.873 28.6445 51.4434 29.3223 50.8691 29.9277C50.2949 30.5332 49.5957 31.0098 48.7715 31.3574L48.8184 31.5508C48.9238 31.5625 49.0273 31.5684 49.1289 31.5684C49.4609 31.5684 49.8613 31.5137 50.3301 31.4043C50.5957 31.7012 50.7285 32.0254 50.7285 32.377C50.7285 32.4824 50.7168 32.5898 50.6934 32.6992C50.459 32.9258 50.166 33.1211 49.8145 33.2852C49.4629 33.4492 49.0762 33.5312 48.6543 33.5312C48.041 33.5312 47.5449 33.3926 47.166 33.1152C46.7871 32.8379 46.5977 32.416 46.5977 31.8496C46.5977 31.5957 46.6738 31.373 46.8262 31.1816C46.9824 30.9941 47.1621 30.8418 47.3652 30.7246C47.5723 30.6035 47.8633 30.4512 48.2383 30.2676Z" fill="black"/>
</g>
<defs>
<clipPath id="clip0_101_4">
<rect width="62" height="34" fill="white"/>
</clipPath>
</defs>
</svg>
