<svg width="68" height="24" viewBox="0 0 68 24" fill="none" xmlns="http://www.w3.org/2000/svg">
<path d="M6.24902 5.74132H8.58822L7.41862 2.76416L6.24902 5.74132Z" fill="#2FABF7"/>
<path d="M35.276 3.18958C35.0633 3.08325 34.7443 3.08325 34.4254 3.08325H32.2988V4.78448H34.4254C34.7443 4.78448 35.0633 4.78448 35.276 4.67816C35.4886 4.57183 35.595 4.25285 35.595 3.93387C35.7013 3.50856 35.4886 3.2959 35.276 3.18958Z" fill="#228FE0"/>
<path d="M58.0298 0V1.27593L57.3919 0H52.3945V1.27593L51.7565 0H44.9516C43.782 0 42.825 0.212655 41.9744 0.637963V0H37.1897V0.637963C36.6581 0.212655 36.0201 0 35.1695 0H18.0508L16.8812 2.65818L15.7116 0H10.2889V1.27593L9.65097 0H5.0789L2.95236 4.99738L0.506836 10.5264H2.95236H5.92952L6.56748 8.82516H8.05606L8.69403 10.5264H14.861V9.25046L15.3926 10.5264H18.4761L19.0078 9.25046V10.5264H33.7872V7.76188H33.9999C34.2125 7.76188 34.2125 7.76188 34.2125 8.08086V10.4201H41.8681V9.7821C42.5061 10.1011 43.463 10.4201 44.7389 10.4201H47.9287L48.5667 8.71883H50.0553L50.6932 10.4201H56.8602V8.82516L57.8172 10.4201H62.8145V0H58.0298ZM22.0912 8.93148H20.2837V3.08349L17.7318 8.93148H16.1369L13.5851 3.08349V8.93148H9.96995L9.22566 7.33658H5.61054L4.97258 9.03781H2.95236L6.14217 1.48858H8.80035L11.7775 8.6125V1.48858H14.6483L16.9875 6.59228L19.1141 1.48858H22.0912V8.93148ZM29.3215 3.08349H25.1747V4.46574H29.2152V5.95432H25.1747V7.4429H29.3215V9.03781H23.3672V1.48858H29.3215V3.08349ZM37.296 6.16698C37.5087 6.59228 37.615 6.91127 37.615 7.54923V9.03781H35.8074V8.08086C35.8074 7.65556 35.8074 7.01759 35.4885 6.59228C35.1695 6.2733 34.8505 6.2733 34.2125 6.2733H32.2987V9.03781H30.4911V1.48858H34.5315C35.4885 1.48858 36.1264 1.48858 36.6581 1.80756C37.1897 2.12654 37.5087 2.65818 37.5087 3.5088C37.5087 4.6784 36.7644 5.31636 36.2328 5.52901C36.7644 5.63534 37.0834 5.95432 37.296 6.16698ZM40.4858 8.93148H38.6783V1.38225H40.4858V8.93148ZM61.4323 8.93148H58.8804L55.478 3.29614V8.93148H51.8628L51.2249 7.33658H47.5034L46.8655 9.03781H44.8453C43.9946 9.03781 42.9314 8.82515 42.2934 8.18719C41.6554 7.54923 41.3365 6.69861 41.3365 5.31636C41.3365 4.25309 41.5491 3.18982 42.2934 2.3392C42.825 1.70124 43.782 1.48858 44.9516 1.48858H46.6528V3.08349H44.9516C44.3136 3.08349 43.9946 3.18982 43.5693 3.5088C43.2503 3.82778 43.0377 4.46574 43.0377 5.21003C43.0377 6.06065 43.144 6.59228 43.5693 7.01759C43.8883 7.33657 44.3136 7.4429 44.8453 7.4429H45.5895L48.0351 1.59491H50.6932L53.6704 8.71883V1.59491H56.3286L59.4121 6.80494V1.59491H61.2196V8.93148H61.4323Z" fill="#0571C1"/>
<path d="M48.1416 5.74132H50.5871L49.4175 2.76416L48.1416 5.74132Z" fill="#228FE0"/>
<path d="M30.0663 21.0525V14.9918L27.3018 17.969L30.0663 21.0525Z" fill="#228FE0"/>
<path d="M18.6885 15.7362V17.1185H22.6226V18.607H18.6885V20.2019H23.0479L25.0681 17.9691L23.1542 15.7362H18.6885Z" fill="#2FABF7"/>
<path d="M34.1059 15.7362H31.873V17.6501H34.2122C34.8502 17.6501 35.2755 17.3311 35.2755 16.6932C35.1692 16.0552 34.7439 15.7362 34.1059 15.7362Z" fill="#228FE0"/>
<path d="M66.9611 17.5438V12.759H65.6852H62.4954C61.5384 12.759 60.7942 12.9717 60.2625 13.397V12.759H55.3715C54.6272 12.759 53.6702 12.9717 53.2449 13.397V12.759H44.6324V13.397C43.9945 12.8654 42.8249 12.759 42.2932 12.759H36.5516V13.397C36.0199 12.8654 34.744 12.759 34.106 12.759H27.7264L26.2378 14.3539L24.8556 12.759H15.2861V23.1791H24.6429L26.1315 21.5842L27.5138 23.1791H33.2554V20.7336H33.9997C34.744 20.7336 35.7009 20.7336 36.4452 20.4146V23.2854H41.23V20.5209H41.4426C41.7616 20.5209 41.7616 20.5209 41.7616 20.8399V23.2854H56.2221C57.179 23.2854 58.136 23.0728 58.6676 22.6475V23.2854H63.2397C64.1966 23.2854 65.1536 23.1791 65.7915 22.7538C66.8548 22.1158 67.4928 20.9462 67.4928 19.564C67.4928 18.8197 67.2801 18.0754 66.9611 17.5438ZM33.9997 19.245H31.8732V21.7968H28.4707L26.3442 19.3513L24.1113 21.7968H17.0937V14.2476H24.2176L26.3442 16.6931L28.577 14.2476H34.2124C35.5946 14.2476 37.1895 14.6729 37.1895 16.6931C37.0832 18.8197 35.5946 19.245 33.9997 19.245ZM44.6324 18.8197C44.8451 19.1387 44.9514 19.564 44.9514 20.2019V21.6905H43.1438V20.7336C43.1438 20.3083 43.1438 19.564 42.8249 19.245C42.6122 18.926 42.1869 18.926 41.5489 18.926H39.635V21.6905H37.8275V14.1413H41.8679C42.7185 14.1413 43.4628 14.1413 43.9945 14.4603C44.5261 14.7793 44.9514 15.3109 44.9514 16.1615C44.9514 17.3311 44.2071 17.9691 43.6755 18.1817C44.2071 18.3944 44.5261 18.607 44.6324 18.8197ZM51.969 15.7362H47.8222V17.1184H51.8627V18.607H47.8222V20.0956H51.969V21.6905H46.0147V14.1413H51.969V15.7362ZM56.4347 21.6905H53.0323V20.0956H56.4347C56.7537 20.0956 56.9664 20.0956 57.179 19.883C57.2854 19.7766 57.3917 19.564 57.3917 19.3513C57.3917 19.1387 57.2854 18.926 57.179 18.8197C57.0727 18.7134 56.86 18.607 56.5411 18.607C54.8398 18.5007 52.8196 18.607 52.8196 16.2678C52.8196 15.2046 53.4576 14.035 55.3715 14.035H58.8803V15.8425H55.5841C55.2651 15.8425 55.0525 15.8425 54.8398 15.9488C54.6272 16.0552 54.6272 16.2678 54.6272 16.4805C54.6272 16.7995 54.8398 16.9058 55.0525 17.0121C55.2651 17.1184 55.4778 17.1184 55.6904 17.1184H56.6474C57.6043 17.1184 58.2423 17.3311 58.6676 17.7564C58.9866 18.0754 59.1992 18.607 59.1992 19.3513C59.1992 20.9462 58.2423 21.6905 56.4347 21.6905ZM65.5789 20.9462C65.1536 21.3715 64.4093 21.6905 63.346 21.6905H59.9435V20.0956H63.346C63.665 20.0956 63.8776 20.0956 64.0903 19.883C64.1966 19.7766 64.3029 19.564 64.3029 19.3513C64.3029 19.1387 64.1966 18.926 64.0903 18.8197C63.984 18.7134 63.7713 18.607 63.4523 18.607C61.7511 18.5007 59.7309 18.607 59.7309 16.2678C59.7309 15.2046 60.3688 14.035 62.2827 14.035H65.7915V15.8425H62.6017C62.2827 15.8425 62.0701 15.8425 61.8574 15.9488C61.6448 16.0552 61.6448 16.2678 61.6448 16.4805C61.6448 16.7995 61.7511 16.9058 62.0701 17.0121C62.2827 17.1184 62.4954 17.1184 62.708 17.1184H63.665C64.6219 17.1184 65.2599 17.3311 65.6852 17.7564C65.7915 17.7564 65.7915 17.8627 65.7915 17.8627C66.1105 18.288 66.2168 18.8197 66.2168 19.3513C66.2168 19.9893 66.0042 20.5209 65.5789 20.9462Z" fill="#0571C1"/>
<path d="M42.7193 15.9486C42.5067 15.8423 42.1877 15.8423 41.8687 15.8423H39.7422V17.5435H41.8687C42.1877 17.5435 42.5067 17.5435 42.7193 17.4372C42.932 17.3309 43.0383 17.0119 43.0383 16.6929C43.1446 16.2676 42.932 16.0549 42.7193 15.9486Z" fill="#228FE0"/>
<path d="M35.276 3.18946C35.0633 3.08313 34.7444 3.08313 34.4254 3.08313H32.2988V4.78436H34.4254C34.7444 4.78436 35.0633 4.78436 35.276 4.67804C35.4886 4.57171 35.595 4.25273 35.595 3.93375C35.7013 3.50844 35.4886 3.29578 35.276 3.18946Z" fill="#228FE0"/>
<path d="M48.1416 5.74132H50.5871L49.4175 2.76416L48.1416 5.74132Z" fill="#228FE0"/>
<path d="M30.0663 21.0525V14.9918L27.3018 17.969L30.0663 21.0525Z" fill="#228FE0"/>
<path d="M34.1059 15.7362H31.873V17.6501H34.2122C34.8502 17.6501 35.2755 17.3311 35.2755 16.6932C35.1692 16.0552 34.7439 15.7362 34.1059 15.7362Z" fill="#228FE0"/>
<path d="M42.7193 15.9486C42.5067 15.8423 42.1877 15.8423 41.8687 15.8423H39.7422V17.5435H41.8687C42.1877 17.5435 42.5067 17.5435 42.7193 17.4372C42.932 17.3309 43.0383 17.0119 43.0383 16.6929C43.1446 16.2676 42.932 16.0549 42.7193 15.9486Z" fill="#228FE0"/>
<path d="M33.3627 21.4781L31.8741 19.8832V21.6908H28.3653L26.2388 19.2452L23.8996 21.6908H16.882V14.2479H24.0059L26.2388 16.6934L27.3021 15.4175L24.6439 12.7593H15.2871V23.1793H24.6439L26.2388 21.5844L27.6211 23.1793H33.3627V21.4781Z" fill="#2FABF7"/>
<path d="M22.3039 10.4201L20.9216 8.93148H20.2837V8.29352L18.6888 6.69861L17.6255 8.93148H16.1369L13.5851 3.08349V8.93148H9.96995L9.22566 7.33657H5.61054L4.86625 8.93148H2.95236L6.14217 1.48858H8.80035L11.7775 8.6125V1.48858H13.3724L11.8838 0H10.2889V1.27593L9.7573 0H5.0789L2.95236 4.99738L0.506836 10.4201H2.95236H6.03585L6.67381 8.82515H8.16239L8.90668 10.4201H14.861V9.14413L15.3926 10.4201H18.4761L19.0078 9.14413V10.4201H22.3039Z" fill="#2FABF7"/>
<path d="M17.4131 5.52899L15.7119 3.82776L16.9878 6.59227L17.4131 5.52899Z" fill="#2FABF7"/>
<path d="M65.7921 22.6475C66.749 22.0095 67.387 20.9462 67.4933 19.7766L66.0047 18.2881C66.111 18.607 66.2174 18.926 66.2174 19.3513C66.2174 19.9893 66.0047 20.5209 65.5794 20.9462C65.1541 21.3715 64.4098 21.6905 63.3465 21.6905H59.9441V20.0956H63.3465C63.6655 20.0956 63.8782 20.0956 64.0908 19.883C64.1971 19.7766 64.3035 19.564 64.3035 19.3513C64.3035 19.1387 64.1971 18.926 64.0908 18.8197C63.9845 18.7134 63.7718 18.607 63.4529 18.607C61.7516 18.5007 59.7314 18.607 59.7314 16.2678C59.7314 15.2046 60.3694 14.2476 61.9643 14.035L60.7947 12.8654C60.582 12.9717 60.4757 13.078 60.3694 13.078V12.4401H55.4783C54.734 12.4401 53.7771 12.6527 53.3518 13.078V12.4401H44.633V13.078C43.995 12.5464 42.8254 12.4401 42.2938 12.4401H36.5521V13.078C36.0205 12.5464 34.7445 12.4401 34.1066 12.4401H27.727L26.2384 14.035L24.8561 12.4401H23.6865L26.8763 15.6299L28.4712 13.9286H34.1066C35.4888 13.9286 37.0837 14.354 37.0837 16.3742C37.0837 18.5007 35.5952 18.926 34.0003 18.926H31.8737V20.5209L33.4686 22.1158V20.5209H34.0003C34.7445 20.5209 35.7015 20.5209 36.4458 20.2019V23.0728H41.2305V20.3083H41.4431C41.7621 20.3083 41.7621 20.3083 41.7621 20.6273V23.0728H56.2226C57.1796 23.0728 58.1365 22.8601 58.6681 22.4348V23.0728H63.2402C64.0908 23.1791 65.0478 23.0728 65.7921 22.6475ZM44.633 18.8197C44.8456 19.1387 44.9519 19.564 44.9519 20.2019V21.6905H43.1444V20.7336C43.1444 20.3083 43.1444 19.564 42.8254 19.245C42.6127 18.926 42.1874 18.926 41.5495 18.926H39.6356V21.6905H37.828V14.1413H41.8685C42.7191 14.1413 43.4634 14.1413 43.995 14.4603C44.5266 14.7793 44.9519 15.3109 44.9519 16.1615C44.9519 17.3311 44.2077 17.9691 43.676 18.1817C44.2077 18.3944 44.5266 18.607 44.633 18.8197ZM51.9695 15.7362H47.8228V17.1185H51.8632V18.607H47.8228V20.0956H51.9695V21.6905H46.0152V14.1413H51.9695V15.7362ZM56.4353 21.6905H53.0328V20.0956H56.4353C56.7542 20.0956 56.9669 20.0956 57.1796 19.883C57.2859 19.7766 57.3922 19.564 57.3922 19.3513C57.3922 19.1387 57.2859 18.926 57.1796 18.8197C57.0732 18.7134 56.8606 18.607 56.5416 18.607C54.8404 18.5007 52.8201 18.607 52.8201 16.2678C52.8201 15.2046 53.4581 14.035 55.372 14.035H58.8808V15.8425H55.5847C55.2657 15.8425 55.053 15.8425 54.8404 15.9489C54.6277 16.0552 54.6277 16.2678 54.6277 16.4805C54.6277 16.7995 54.8404 16.9058 55.053 17.0121C55.2657 17.1185 55.4783 17.1185 55.691 17.1185H56.6479C57.6049 17.1185 58.2428 17.3311 58.6681 17.7564C58.9871 18.0754 59.1998 18.607 59.1998 19.3513C59.1998 20.9462 58.2428 21.6905 56.4353 21.6905Z" fill="#228FE0"/>
<path d="M61.5391 16.4806C61.5391 16.7996 61.6454 16.9059 61.9644 17.0123C62.177 17.1186 62.3897 17.1186 62.6023 17.1186H63.5593C64.1972 17.1186 64.6225 17.2249 65.0479 17.4376L63.4529 15.8427H62.496C62.177 15.8427 61.9644 15.8426 61.7517 15.949C61.6454 16.0553 61.5391 16.268 61.5391 16.4806Z" fill="#228FE0"/>
<path d="M57.8174 10.1008L58.03 10.4198H58.1364L57.8174 10.1008Z" fill="#228FE0"/>
<path d="M51.9688 4.25281L53.7763 8.61222V6.06037L51.9688 4.25281Z" fill="#228FE0"/>
<path d="M33.7872 7.76163H33.9999C34.2125 7.76163 34.2125 7.76163 34.2125 8.08061V10.4198H41.8681V9.78185C42.506 10.1008 43.463 10.4198 44.7389 10.4198H47.9287L48.5667 8.71857H50.0553L50.6932 10.4198H56.8602V9.35654L55.3716 7.86796V9.03756H51.7565L51.2249 7.33632H47.5034L46.8654 9.03756H44.8452C43.9946 9.03756 42.9313 8.8249 42.2934 8.18694C41.6554 7.54898 41.3364 6.69836 41.3364 5.31611C41.3364 4.25284 41.5491 3.18957 42.2934 2.33895C42.825 1.70099 43.782 1.48833 44.9516 1.48833H46.6528V3.08324H44.9516C44.3136 3.08324 43.9946 3.18957 43.5693 3.50855C43.2503 3.82753 43.0377 4.46549 43.0377 5.20978C43.0377 6.0604 43.144 6.59203 43.5693 7.01734C43.8883 7.33632 44.3136 7.44265 44.8452 7.44265H45.5895L48.035 1.59466H49.0983L47.6097 0.106079H44.8452C43.6756 0.106079 42.7187 0.318734 41.8681 0.744042V0.106079H37.1897V0.744042C36.658 0.318734 36.0201 0.106079 35.1695 0.106079H18.0508L16.8812 2.76426L15.7116 0.106079H11.0332L12.5218 1.59466H14.6483L16.4559 5.52876L17.0939 6.16672L19.0077 1.48833H21.9849V9.03756H20.1773V3.18956L18.3698 7.44265L21.4533 10.5261H33.6809L33.7872 7.76163ZM38.6783 1.48833H40.4858V9.03756H38.6783V1.48833ZM29.3215 3.08324H25.1747V4.46549H29.2151V5.95407H25.1747V7.44265H29.3215V9.03756H23.3672V1.48833H29.3215V3.08324ZM32.2986 8.93123H30.4911V1.38201H34.5315C35.4884 1.38201 36.1264 1.382 36.658 1.70099C37.1897 2.01997 37.5087 2.5516 37.5087 3.40222C37.5087 4.57182 36.7644 5.20978 36.2327 5.42243C36.658 5.52876 36.977 5.84774 37.0834 6.0604C37.296 6.48571 37.4023 6.80469 37.4023 7.44265V8.93123H35.5948V7.97428C35.5948 7.54898 35.5948 6.91101 35.2758 6.48571C35.1695 6.27305 34.8505 6.27305 34.2125 6.27305H32.2986V8.93123Z" fill="#228FE0"/>
</svg>
