<svg width="44" height="27" viewBox="0 0 44 27" fill="none" xmlns="http://www.w3.org/2000/svg">
<path d="M43.9996 13.2C43.9996 20.4635 38.1329 26.4 30.7996 26.4C23.5361 26.4 17.5996 20.4635 17.5996 13.2C17.5996 5.9365 23.4663 0 30.7297 0C38.1329 0 43.9996 5.9365 43.9996 13.2Z" fill="#FFB600"/>
<path d="M30.7996 0C38.0631 0 43.9996 5.9365 43.9996 13.2C43.9996 20.4635 38.1329 26.4 30.7996 26.4C23.5361 26.4 17.5996 20.4635 17.5996 13.2" fill="#F7981D"/>
<path d="M30.7998 0C38.0633 0 43.9998 5.9365 43.9998 13.2C43.9998 20.4635 38.1331 26.4 30.7998 26.4" fill="#FF8500"/>
<path d="M13.0603 0C5.86666 0.0698411 0 5.9365 0 13.2C0 20.4635 5.86666 26.4 13.2 26.4C16.6222 26.4 19.6952 25.073 22.0698 22.9777C22.5587 22.5587 22.9777 22.0698 23.3968 21.5809H20.673C20.3238 21.1619 19.9746 20.673 19.6952 20.2539H24.3746C24.6539 19.8349 24.9333 19.346 25.1428 18.8571H18.927C18.7174 18.4381 18.5079 17.9492 18.3682 17.4603H25.6317C26.0508 16.1333 26.3301 14.7365 26.3301 13.2698C26.3301 12.292 26.1904 11.3841 26.0507 10.4762H17.9492C18.019 9.98728 18.1587 9.56824 18.2984 9.07935H25.5619C25.4222 8.59046 25.2127 8.10157 25.0031 7.68252H18.8571C19.0666 7.19364 19.346 6.77459 19.6254 6.2857H24.3047C24.0254 5.79681 23.6761 5.30793 23.2571 4.88888H20.673C21.092 4.39999 21.5111 3.98094 22 3.5619C19.6952 1.39682 16.5524 0.139682 13.1301 0.139682C13.1301 -1.35293e-07 13.1301 0 13.0603 0Z" fill="#FF5050"/>
<path d="M0 13.2002C0 20.4637 5.86666 26.4002 13.2 26.4002C16.6222 26.4002 19.6952 25.0732 22.0698 22.9779C22.5587 22.5589 22.9777 22.07 23.3968 21.5811H20.673C20.3238 21.1621 19.9746 20.6732 19.6952 20.2541H24.3746C24.6539 19.8351 24.9333 19.3462 25.1428 18.8573H18.927C18.7174 18.4383 18.5079 17.9494 18.3682 17.4605H25.6317C26.0508 16.1335 26.3301 14.7367 26.3301 13.27C26.3301 12.2923 26.1904 11.3843 26.0507 10.4764H17.9492C18.019 9.98749 18.1587 9.56845 18.2984 9.07956H25.5619C25.4222 8.59067 25.2127 8.10178 25.0031 7.68274H18.8571C19.0666 7.19385 19.346 6.7748 19.6254 6.28591H24.3047C24.0254 5.79703 23.6761 5.30814 23.2571 4.88909H20.673C21.092 4.4002 21.5111 3.98116 22 3.56211C19.6952 1.39703 16.5524 0.139893 13.1301 0.139893H13.0603" fill="#E52836"/>
<path d="M13.2002 26.4002C16.6224 26.4002 19.6955 25.0732 22.0701 22.9779C22.5589 22.5589 22.978 22.07 23.397 21.5811H20.6732C20.324 21.1621 19.9748 20.6732 19.6955 20.2541H24.3748C24.6542 19.8351 24.9335 19.3462 25.1431 18.8573H18.9272C18.7177 18.4383 18.5082 17.9494 18.3685 17.4605H25.632C26.051 16.1335 26.3304 14.7367 26.3304 13.27C26.3304 12.2923 26.1907 11.3843 26.051 10.4764H17.9494C18.0193 9.98749 18.159 9.56845 18.2986 9.07956H25.5621C25.4224 8.59067 25.2129 8.10178 25.0034 7.68274H18.8574C19.0669 7.19385 19.3462 6.7748 19.6256 6.28591H24.305C24.0256 5.79703 23.6764 5.30814 23.2574 4.88909H20.6732C21.0923 4.4002 21.5113 3.98116 22.0002 3.56211C19.6955 1.39703 16.5526 0.139893 13.1304 0.139893H13.0605" fill="#CB2026"/>
<path d="M17.8789 16.5524L18.0884 15.3651C18.0186 15.3651 17.8789 15.4349 17.7392 15.4349C17.2503 15.4349 17.1805 15.1556 17.2503 15.0159L17.6694 12.5714H18.4376L18.6472 11.2445H17.9488L18.0884 10.4064H16.6916C16.6916 10.4064 15.8535 15.0159 15.8535 15.5746C15.8535 16.4127 16.3424 16.7619 16.971 16.7619C17.39 16.7619 17.7392 16.6222 17.8789 16.5524Z" fill="white"/>
<path d="M18.3682 14.3175C18.3682 16.273 19.6951 16.7619 20.8126 16.7619C21.8602 16.7619 22.2793 16.5524 22.2793 16.5524L22.5586 15.2254C22.5586 15.2254 21.7904 15.5746 21.092 15.5746C19.5555 15.5746 19.8348 14.4571 19.8348 14.4571H22.6983C22.6983 14.4571 22.9078 13.5492 22.9078 13.2C22.9078 12.2921 22.419 11.1746 20.8824 11.1746C19.4158 11.0349 18.3682 12.5714 18.3682 14.3175ZM20.8126 12.2921C21.5809 12.2921 21.4412 13.2 21.4412 13.2698H19.9047C19.9047 13.2 20.0444 12.2921 20.8126 12.2921Z" fill="white"/>
<path d="M29.6821 16.5523L29.9614 15.0158C29.9614 15.0158 29.263 15.365 28.7741 15.365C27.7964 15.365 27.3773 14.5967 27.3773 13.7587C27.3773 12.0825 28.2154 11.1745 29.1932 11.1745C29.8916 11.1745 30.4503 11.5936 30.4503 11.5936L30.6599 10.1269C30.6599 10.1269 29.8218 9.77771 29.0535 9.77771C27.4472 9.77771 25.8408 11.1745 25.8408 13.8285C25.8408 15.5745 26.6789 16.7618 28.3551 16.7618C28.9138 16.7618 29.6821 16.5523 29.6821 16.5523Z" fill="white"/>
<path d="M10.1969 11.0349C9.21915 11.0349 8.52074 11.3143 8.52074 11.3143L8.31122 12.5016C8.31122 12.5016 8.93979 12.2222 9.84772 12.2222C10.3366 12.2222 10.7557 12.2921 10.7557 12.7111C10.7557 12.9905 10.6858 13.0603 10.6858 13.0603C10.6858 13.0603 10.2668 13.0603 10.0572 13.0603C8.86995 13.0603 7.54297 13.5492 7.54297 15.1555C7.54297 16.4127 8.38106 16.692 8.86995 16.692C9.84772 16.692 10.2668 16.0635 10.3366 16.0635L10.2668 16.6222H11.5239L12.0826 12.7809C12.0826 11.1048 10.6858 11.0349 10.1969 11.0349ZM10.4763 14.1778C10.4763 14.3873 10.3366 15.5047 9.49852 15.5047C9.07947 15.5047 8.93979 15.1555 8.93979 14.946C8.93979 14.5968 9.14931 14.1079 10.1969 14.1079C10.4065 14.1778 10.4763 14.1778 10.4763 14.1778Z" fill="white"/>
<path d="M13.4091 16.6919C13.7583 16.6919 15.5043 16.7618 15.5043 14.8761C15.5043 13.13 13.8281 13.4792 13.8281 12.7808C13.8281 12.4316 14.1075 12.2919 14.5964 12.2919C14.8059 12.2919 15.5742 12.3618 15.5742 12.3618L15.7837 11.1046C15.7837 11.1046 15.2948 10.965 14.4567 10.965C13.4091 10.965 12.3615 11.384 12.3615 12.7808C12.3615 14.3872 14.1075 14.2475 14.1075 14.8761C14.1075 15.2951 13.6186 15.3649 13.2694 15.3649C12.6408 15.3649 12.0123 15.1554 12.0123 15.1554L11.8027 16.4126C11.8726 16.5522 12.2218 16.6919 13.4091 16.6919Z" fill="white"/>
<path d="M41.2759 9.91736L40.9965 11.8031C40.9965 11.8031 40.4378 11.1047 39.6695 11.1047C38.4124 11.1047 37.2949 12.6412 37.2949 14.457C37.2949 15.5745 37.8537 16.7618 39.041 16.7618C39.879 16.7618 40.3679 16.2031 40.3679 16.2031L40.2981 16.6919H41.6949L42.7425 9.9872L41.2759 9.91736ZM40.6473 13.6189C40.6473 14.3872 40.2981 15.365 39.5298 15.365C39.041 15.365 38.7616 14.9459 38.7616 14.2475C38.7616 13.1301 39.2505 12.4316 39.879 12.4316C40.3679 12.4316 40.6473 12.7808 40.6473 13.6189Z" fill="white"/>
<path d="M2.58382 16.6221L3.42191 11.5935L3.56159 16.6221H4.53937L6.35524 11.5935L5.58699 16.6221H7.05365L8.17111 9.91736H5.86635L4.46953 14.038L4.39969 9.91736H2.37429L1.25684 16.6221H2.58382Z" fill="white"/>
<path d="M24.2347 16.6222C24.6538 14.3174 24.7236 12.4317 25.7014 12.7809C25.8411 11.873 26.0506 11.5238 26.1903 11.1746C26.1903 11.1746 26.1205 11.1746 25.9109 11.1746C25.2824 11.1746 24.7935 12.0127 24.7935 12.0127L24.9332 11.2444H23.6062L22.6982 16.692H24.2347V16.6222Z" fill="white"/>
<path d="M32.8952 11.0349C31.9174 11.0349 31.219 11.3143 31.219 11.3143L31.0095 12.5016C31.0095 12.5016 31.638 12.2222 32.546 12.2222C33.0349 12.2222 33.4539 12.2921 33.4539 12.7111C33.4539 12.9905 33.3841 13.0603 33.3841 13.0603C33.3841 13.0603 32.965 13.0603 32.7555 13.0603C31.5682 13.0603 30.2412 13.5492 30.2412 15.1555C30.2412 16.4127 31.0793 16.692 31.5682 16.692C32.546 16.692 32.965 16.0635 33.0349 16.0635L32.965 16.6222H34.2222L34.7809 12.7809C34.8507 11.1048 33.3841 11.0349 32.8952 11.0349ZM33.2444 14.1778C33.2444 14.3873 33.1047 15.5047 32.2666 15.5047C31.8476 15.5047 31.7079 15.1555 31.7079 14.946C31.7079 14.5968 31.9174 14.1079 32.965 14.1079C33.1745 14.1778 33.1745 14.1778 33.2444 14.1778Z" fill="white"/>
<path d="M35.9681 16.6222C36.3872 14.3174 36.457 12.4317 37.4348 12.7809C37.5745 11.873 37.784 11.5238 37.9237 11.1746C37.9237 11.1746 37.8539 11.1746 37.6443 11.1746C37.0158 11.1746 36.5269 12.0127 36.5269 12.0127L36.6666 11.2444H35.3396L34.4316 16.692H35.9681V16.6222Z" fill="white"/>
<path d="M15.7139 15.5746C15.7139 16.4127 16.2028 16.7619 16.8313 16.7619C17.3202 16.7619 17.7393 16.6222 17.8789 16.5524L18.0885 15.3651C18.0186 15.3651 17.8789 15.4349 17.7393 15.4349C17.2504 15.4349 17.1805 15.1556 17.2504 15.0159L17.6694 12.5714H18.4377L18.6472 11.2445H17.9488L18.0885 10.4064" fill="#DCE5E5"/>
<path d="M19.0664 14.3175C19.0664 16.273 19.695 16.7619 20.8124 16.7619C21.8601 16.7619 22.2791 16.5524 22.2791 16.5524L22.5585 15.2254C22.5585 15.2254 21.7902 15.5746 21.0918 15.5746C19.5553 15.5746 19.8347 14.4571 19.8347 14.4571H22.6981C22.6981 14.4571 22.9077 13.5492 22.9077 13.2C22.9077 12.2921 22.4188 11.1746 20.8823 11.1746C19.4156 11.0349 19.0664 12.5714 19.0664 14.3175ZM20.8124 12.2921C21.5807 12.2921 21.7204 13.2 21.7204 13.2698H19.9045C19.9045 13.2 20.0442 12.2921 20.8124 12.2921Z" fill="#DCE5E5"/>
<path d="M29.6819 16.5523L29.9613 15.0158C29.9613 15.0158 29.2629 15.365 28.774 15.365C27.7962 15.365 27.3772 14.5967 27.3772 13.7587C27.3772 12.0825 28.2152 11.1745 29.193 11.1745C29.8914 11.1745 30.4502 11.5936 30.4502 11.5936L30.6597 10.1269C30.6597 10.1269 29.8216 9.77771 29.0533 9.77771C27.447 9.77771 26.5391 11.1745 26.5391 13.8285C26.5391 15.5745 26.6787 16.7618 28.3549 16.7618C28.9137 16.7618 29.6819 16.5523 29.6819 16.5523Z" fill="#DCE5E5"/>
<path d="M8.31122 12.5714C8.31122 12.5714 8.93979 12.292 9.84772 12.292C10.3366 12.292 10.7557 12.3619 10.7557 12.7809C10.7557 13.0603 10.6858 13.1301 10.6858 13.1301C10.6858 13.1301 10.2668 13.1301 10.0572 13.1301C8.86995 13.1301 7.54297 13.619 7.54297 15.2253C7.54297 16.4825 8.38106 16.7618 8.86995 16.7618C9.84772 16.7618 10.2668 16.1333 10.3366 16.1333L10.2668 16.692H11.5239L12.0826 12.8507C12.0826 11.2444 10.6858 11.1746 10.1271 11.1746L8.31122 12.5714ZM11.1747 14.1777C11.1747 14.3872 10.3366 15.5047 9.49852 15.5047C9.07947 15.5047 8.93979 15.1555 8.93979 14.946C8.93979 14.5968 9.14931 14.1079 10.1969 14.1079C10.4065 14.1777 11.1747 14.1777 11.1747 14.1777Z" fill="#DCE5E5"/>
<path d="M11.8721 16.5522C11.8721 16.5522 12.2911 16.6919 13.4784 16.6919C13.8276 16.6919 15.5737 16.7618 15.5737 14.8761C15.5737 13.13 13.8975 13.4792 13.8975 12.7808C13.8975 12.4316 14.1768 12.2919 14.6657 12.2919C14.8752 12.2919 15.6435 12.3618 15.6435 12.3618L15.853 11.1046C15.853 11.1046 15.3641 10.965 14.526 10.965C13.4784 10.965 13.1292 11.384 13.1292 12.7808C13.1292 14.3872 14.1768 14.2475 14.1768 14.8761C14.1768 15.2951 13.6879 15.3649 13.3387 15.3649" fill="#DCE5E5"/>
<path d="M40.9965 11.8032C40.9965 11.8032 40.4378 11.1048 39.6695 11.1048C38.4124 11.1048 37.9933 12.6413 37.9933 14.4571C37.9933 15.5746 37.8537 16.7619 39.041 16.7619C39.8791 16.7619 40.3679 16.2032 40.3679 16.2032L40.2981 16.692H41.6949L42.7425 9.9873L40.9965 11.8032ZM40.9267 13.619C40.9267 14.3873 40.2981 15.3651 39.5299 15.3651C39.041 15.3651 38.7616 14.946 38.7616 14.2476C38.7616 13.1302 39.2505 12.4317 39.8791 12.4317C40.3679 12.4317 40.9267 12.7809 40.9267 13.619Z" fill="#DCE5E5"/>
<path d="M2.58382 16.6221L3.42191 11.5935L3.56159 16.6221H4.53937L6.35524 11.5935L5.58699 16.6221H7.05365L8.17111 9.91736H6.42508L4.46953 14.038L4.39969 9.91736H3.63143L1.25684 16.6221H2.58382Z" fill="#DCE5E5"/>
<path d="M22.7686 16.6222H24.2352C24.6543 14.3174 24.7241 12.4317 25.7019 12.7809C25.8416 11.873 26.0511 11.5238 26.1908 11.1746C26.1908 11.1746 26.1209 11.1746 25.9114 11.1746C25.2828 11.1746 24.794 12.0127 24.794 12.0127L24.9336 11.2444" fill="#DCE5E5"/>
<path d="M31.0095 12.5714C31.0095 12.5714 31.638 12.292 32.546 12.292C33.0349 12.292 33.4539 12.3619 33.4539 12.7809C33.4539 13.0603 33.3841 13.1301 33.3841 13.1301C33.3841 13.1301 32.965 13.1301 32.7555 13.1301C31.5682 13.1301 30.2412 13.619 30.2412 15.2253C30.2412 16.4825 31.0793 16.7618 31.5682 16.7618C32.546 16.7618 32.965 16.1333 33.0349 16.1333L32.965 16.692H34.2222L34.7809 12.8507C34.7809 11.2444 33.3841 11.1746 32.8253 11.1746L31.0095 12.5714ZM33.873 14.1777C33.873 14.3872 33.0349 15.5047 32.1968 15.5047C31.7777 15.5047 31.638 15.1555 31.638 14.946C31.638 14.5968 31.8476 14.1079 32.8952 14.1079C33.1745 14.1777 33.873 14.1777 33.873 14.1777Z" fill="#DCE5E5"/>
<path d="M34.502 16.6222H35.9686C36.3877 14.3174 36.4575 12.4317 37.4353 12.7809C37.575 11.873 37.7845 11.5238 37.9242 11.1746C37.9242 11.1746 37.8543 11.1746 37.6448 11.1746C37.0162 11.1746 36.5273 12.0127 36.5273 12.0127L36.667 11.2444" fill="#DCE5E5"/>
</svg>
