<svg width="60" height="16" viewBox="0 0 60 16" fill="none" xmlns="http://www.w3.org/2000/svg">
<path d="M46.3816 4.00012H43.1435C42.953 4.00012 42.7626 4.1906 42.6673 4.38108L41.334 12.7621C41.334 12.9526 41.4292 13.0478 41.6197 13.0478H43.334C43.5245 13.0478 43.6197 12.9526 43.6197 12.7621L44.0007 10.3811C44.0007 10.1907 44.1912 10.0002 44.4769 10.0002H45.5245C47.715 10.0002 48.9531 8.95255 49.2388 6.85729C49.4293 6.00014 49.2388 5.23823 48.8579 4.76203C48.2864 4.28584 47.4293 4.00012 46.3816 4.00012ZM46.7626 7.14301C46.5721 8.28588 45.715 8.28588 44.8578 8.28588H44.2864L44.6673 6.09538C44.6673 6.00014 44.7626 5.9049 44.9531 5.9049H45.1435C45.715 5.9049 46.2864 5.9049 46.5721 6.28586C46.7626 6.3811 46.7626 6.66681 46.7626 7.14301Z" fill="#139AD6"/>
<path d="M23.0477 4.00012H19.8095C19.6191 4.00012 19.4286 4.1906 19.3333 4.38108L18 12.7621C18 12.9526 18.0952 13.0478 18.2857 13.0478H19.8095C20 13.0478 20.1905 12.8573 20.2857 12.6669L20.6667 10.3811C20.6667 10.1907 20.8572 10.0002 21.1429 10.0002H22.1905C24.381 10.0002 25.6191 8.95255 25.9048 6.85729C26.0953 6.00014 25.9048 5.23823 25.5239 4.76203C24.9524 4.28584 24.1905 4.00012 23.0477 4.00012ZM23.4286 7.14301C23.2381 8.28588 22.381 8.28588 21.5238 8.28588H21.0476L21.4286 6.09538C21.4286 6.00014 21.5238 5.9049 21.7143 5.9049H21.9048C22.4762 5.9049 23.0477 5.9049 23.3334 6.28586C23.4286 6.3811 23.5239 6.66681 23.4286 7.14301Z" fill="#263B80"/>
<path d="M32.8569 7.0479H31.3331C31.2379 7.0479 31.0474 7.14314 31.0474 7.23838L30.9521 7.71457L30.8569 7.5241C30.476 7.0479 29.8093 6.85742 29.0474 6.85742C27.3331 6.85742 25.8092 8.19077 25.5235 10.0003C25.3331 10.9527 25.6188 11.8099 26.095 12.3813C26.5712 12.9527 27.2378 13.1432 28.095 13.1432C29.5236 13.1432 30.2855 12.286 30.2855 12.286L30.1902 12.7622C30.1902 12.9527 30.2855 13.048 30.4759 13.048H31.9045C32.095 13.048 32.2855 12.8575 32.3807 12.667L33.2379 7.33362C33.1426 7.23838 32.9522 7.0479 32.8569 7.0479ZM30.6664 10.0955C30.476 10.9527 29.8093 11.6194 28.8569 11.6194C28.3807 11.6194 27.9997 11.4289 27.8093 11.2384C27.6188 10.9527 27.5235 10.5717 27.5235 10.0955C27.6188 9.2384 28.3807 8.57173 29.2378 8.57173C29.714 8.57173 29.9998 8.7622 30.2855 8.95268C30.5712 9.2384 30.6664 9.71459 30.6664 10.0955Z" fill="#263B80"/>
<path d="M56.0962 7.04766H54.5724C54.4771 7.04766 54.2866 7.14289 54.2866 7.23813L54.1914 7.71433L54.0962 7.52385C53.7152 7.04766 53.0485 6.85718 52.2866 6.85718C50.5723 6.85718 49.0485 8.19053 48.7628 10.0001C48.5723 10.9525 48.858 11.8096 49.3342 12.381C49.8104 12.9525 50.4771 13.143 51.3342 13.143C52.7628 13.143 53.5247 12.2858 53.5247 12.2858L53.4295 12.762C53.4295 12.9525 53.5247 13.0477 53.7152 13.0477H55.1438C55.3343 13.0477 55.5247 12.8572 55.62 12.6668L56.4771 7.33337C56.3819 7.23813 56.2867 7.04766 56.0962 7.04766ZM53.9057 10.0953C53.7152 10.9525 53.0485 11.6191 52.0961 11.6191C51.62 11.6191 51.239 11.4287 51.0485 11.2382C50.858 10.9525 50.7628 10.5715 50.7628 10.0953C50.858 9.23815 51.62 8.57148 52.4771 8.57148C52.9533 8.57148 53.239 8.76196 53.5247 8.95244C53.9057 9.23815 54.0009 9.71435 53.9057 10.0953Z" fill="#139AD6"/>
<path d="M41.143 7.04761H39.5239C39.3334 7.04761 39.2382 7.14285 39.143 7.23808L37.0477 10.4762L36.0953 7.42856C36.0001 7.23808 35.9048 7.14285 35.6191 7.14285H34.0953C33.9048 7.14285 33.8096 7.33332 33.8096 7.5238L35.5239 12.5715L33.9048 14.8572C33.8096 15.0477 33.9048 15.3334 34.0953 15.3334H35.6191C35.8096 15.3334 35.9048 15.2381 36.0001 15.1429L41.2382 7.61904C41.5239 7.33332 41.3335 7.04761 41.143 7.04761Z" fill="#263B80"/>
<path d="M57.9056 4.28582L56.5723 12.8573C56.5723 13.0478 56.6675 13.143 56.858 13.143H58.1913C58.3818 13.143 58.5723 12.9526 58.6675 12.7621L60.0009 4.38106C60.0009 4.19058 59.9056 4.09535 59.7152 4.09535H58.1913C58.0961 4.00011 58.0008 4.09535 57.9056 4.28582Z" fill="#139AD6"/>
<path d="M10.9525 1.14287C10.2858 0.380955 9.0477 0 7.3334 0H2.57145C2.28573 0 2.00002 0.285715 1.90478 0.571432L0 13.0477C0 13.3335 0.190478 13.5239 0.380956 13.5239H3.33336L4.09527 8.85722V9.0477C4.19051 8.76198 4.47623 8.47626 4.76195 8.47626H6.19053C8.95246 8.47626 11.0477 7.3334 11.7144 4.19051C11.7144 4.09527 11.7144 4.00003 11.7144 3.90479C11.6191 3.90479 11.6191 3.90479 11.7144 3.90479C11.8096 2.66669 11.6191 1.90478 10.9525 1.14287Z" fill="#263B80"/>
<path d="M11.6194 3.90491C11.6194 4.00015 11.6194 4.09539 11.6194 4.19063C10.9527 7.42875 8.85743 8.47637 6.0955 8.47637H4.66691C4.3812 8.47637 4.09548 8.76209 4.00024 9.04781L3.04785 14.8574C3.04785 15.0479 3.14309 15.2383 3.42881 15.2383H5.90502C6.19074 15.2383 6.47645 15.0479 6.47645 14.7621V14.6669L6.95265 11.7145V11.524C6.95265 11.2383 7.23836 11.0478 7.52408 11.0478H7.90504C10.286 11.0478 12.1908 10.0954 12.667 7.23827C12.8575 6.0954 12.7622 5.04777 12.1908 4.3811C12.0956 4.19062 11.9051 4.00015 11.6194 3.90491Z" fill="#139AD6"/>
<path d="M10.9529 3.61909C10.8577 3.61909 10.7624 3.52385 10.6672 3.52385C10.572 3.52385 10.4767 3.52385 10.3815 3.42861C10.0005 3.33337 9.61956 3.33337 9.14337 3.33337H5.42905C5.33381 3.33337 5.23857 3.33337 5.14333 3.42861C4.95285 3.52385 4.85761 3.71433 4.85761 3.90481L4.0957 8.85723V9.04771C4.19094 8.76199 4.47666 8.47627 4.76238 8.47627H6.19096C8.95289 8.47627 11.0481 7.33341 11.7148 4.19052C11.7148 4.09529 11.7148 4.00005 11.8101 3.90481C11.6196 3.80957 11.5243 3.71433 11.3339 3.71433C11.0481 3.61909 11.0481 3.61909 10.9529 3.61909Z" fill="#232C65"/>
</svg>
