<svg width="62" height="19" viewBox="0 0 62 19" fill="none" xmlns="http://www.w3.org/2000/svg">
<path d="M22.7334 18.3048L25.8826 0.590576H30.8032L27.7524 18.3048H22.7334Z" fill="#3C58BF"/>
<path d="M22.7334 18.3048L26.7683 0.590576H30.8032L27.7524 18.3048H22.7334Z" fill="#293688"/>
<path d="M45.5649 0.7873C44.5808 0.393649 43.0062 0 41.038 0C36.1173 0 32.5745 2.46031 32.5745 6.00316C32.5745 8.6603 35.0348 10.0381 37.003 10.9238C38.9713 11.8095 39.5618 12.4 39.5618 13.1873C39.5618 14.3682 37.9872 14.9587 36.6094 14.9587C34.6411 14.9587 33.5586 14.6635 31.8856 13.9746L31.1967 13.6793L30.5078 17.7143C31.6888 18.2063 33.8538 18.6984 36.1173 18.6984C41.3332 18.6984 44.7776 16.2381 44.7776 12.4984C44.7776 10.4317 43.4983 8.85713 40.5459 7.57776C38.7745 6.69205 37.6919 6.19999 37.6919 5.31428C37.6919 4.52698 38.5776 3.73968 40.5459 3.73968C42.2189 3.73968 43.3999 4.03491 44.2856 4.42856L44.7776 4.62539L45.5649 0.7873Z" fill="#3C58BF"/>
<path d="M45.5649 0.7873C44.5808 0.393649 43.0062 0 41.038 0C36.1173 0 33.4602 2.46031 33.4602 6.00316C33.4602 8.6603 35.0348 10.0381 37.003 10.9238C38.9713 11.8095 39.5618 12.4 39.5618 13.1873C39.5618 14.3682 37.9872 14.9587 36.6094 14.9587C34.6411 14.9587 33.5586 14.6635 31.8856 13.9746L31.1967 13.6793L30.5078 17.7143C31.6888 18.2063 33.8538 18.6984 36.1173 18.6984C41.3332 18.6984 44.7776 16.2381 44.7776 12.4984C44.7776 10.4317 43.4983 8.85713 40.5459 7.57776C38.7745 6.69205 37.6919 6.19999 37.6919 5.31428C37.6919 4.52698 38.5776 3.73968 40.5459 3.73968C42.2189 3.73968 43.3999 4.03491 44.2856 4.42856L44.7776 4.62539L45.5649 0.7873Z" fill="#293688"/>
<path d="M54.0285 0.590576C52.8476 0.590576 51.9619 0.68899 51.4698 1.86994L44.0889 18.3048H49.4031L50.3873 15.3524H56.6857L57.2761 18.3048H61.9999L57.8666 0.590576H54.0285ZM51.765 12.4001C52.0603 11.5144 53.7333 7.18421 53.7333 7.18421C53.7333 7.18421 54.1269 6.10168 54.4222 5.41279L54.7174 7.0858C54.7174 7.0858 55.7015 11.5144 55.8984 12.4985H51.765V12.4001Z" fill="#3C58BF"/>
<path d="M55.2095 0.590576C54.0285 0.590576 53.1428 0.68899 52.6508 1.86994L44.0889 18.3048H49.4031L50.3873 15.3524H56.6857L57.2761 18.3048H61.9999L57.8666 0.590576H55.2095ZM51.765 12.4001C52.1587 11.4159 53.7333 7.18421 53.7333 7.18421C53.7333 7.18421 54.1269 6.10168 54.4222 5.41279L54.7174 7.0858C54.7174 7.0858 55.7015 11.5144 55.8984 12.4985H51.765V12.4001Z" fill="#293688"/>
<path d="M13.6788 12.9905L13.1867 10.4318C12.301 7.47943 9.44705 4.23181 6.29785 2.65721L10.7264 18.4032H16.0407L24.0121 0.688965H18.6978L13.6788 12.9905Z" fill="#3C58BF"/>
<path d="M13.6788 12.9905L13.1867 10.4318C12.301 7.47943 9.44705 4.23181 6.29785 2.65721L10.7264 18.4032H16.0407L24.0121 0.688965H19.682L13.6788 12.9905Z" fill="#293688"/>
<path d="M0 0.590576L0.885713 0.787402C7.18411 2.26359 11.5143 6.00326 13.1873 10.4318L11.4159 2.06676C11.1206 0.885814 10.2349 0.590576 9.15236 0.590576H0Z" fill="#FFBC00"/>
<path d="M0 0.590576C6.2984 2.06676 11.5143 5.90485 13.1873 10.3334L11.5143 3.34613C11.219 2.16518 10.2349 1.47629 9.15236 1.47629L0 0.590576Z" fill="#F7981D"/>
<path d="M0 0.590576C6.2984 2.06676 11.5143 5.90485 13.1873 10.3334L12.0063 6.49533C11.7111 5.31438 11.3174 4.13343 9.93967 3.64136L0 0.590576Z" fill="#ED7C00"/>
<path d="M18.6006 12.4L15.2546 9.05394L13.68 12.7936L13.2863 10.3333C12.4006 7.38093 9.54666 4.13332 6.39746 2.55872L10.826 18.3047H16.1403L18.6006 12.4Z" fill="#051244"/>
<path d="M27.7524 18.3048L23.5207 13.9746L22.7334 18.3048H27.7524Z" fill="#051244"/>
<path d="M39.0697 12.2032C39.4634 12.5969 39.6602 12.8921 39.5618 13.2858C39.5618 14.4667 37.9872 15.0572 36.6094 15.0572C34.6411 15.0572 33.5586 14.762 31.8856 14.0731L31.1967 13.7779L30.5078 17.8128C31.6888 18.3048 33.8538 18.7969 36.1173 18.7969C39.2665 18.7969 41.8253 17.9112 43.3014 16.3366L39.0697 12.2032Z" fill="#051244"/>
<path d="M44.7783 18.3048H49.4037L50.3878 15.3524H56.6862L57.2767 18.3048H62.0005L60.3275 11.1206L54.4227 5.41272L54.718 6.98732C54.718 6.98732 55.7021 11.4159 55.8989 12.4H51.7656C52.1593 11.4159 53.7339 7.18414 53.7339 7.18414C53.7339 7.18414 54.1275 6.10161 54.4227 5.41272" fill="#051244"/>
</svg>
